<svg xmlns="http://www.w3.org/2000/svg" xml:space="preserve" width="888" height="500"><defs><linearGradient id="a" x1="0" x2="888" y1="250" y2="250" gradientTransform="translate(-444 -250)" gradientUnits="userSpaceOnUse"><stop offset="0%" style="stop-color:#c5ebf5"/><stop offset="99.531%" style="stop-color:#6fcde5"/></linearGradient></defs><path fill="url(#a)" d="M-444-250h888v500h-888z" transform="translate(444 250)"/><g><path d="m6.21 12.293-3.215-4.3 3.197-4.178-.617-.842-3.603 4.712-.005.603 3.62 4.847.623-.842z" style="stroke:none;stroke-width:1;stroke-dasharray:none;stroke-linecap:butt;stroke-dashoffset:0;stroke-linejoin:miter;stroke-miterlimit:4;fill:#0154dc;fill-rule:nonzero;opacity:1" transform="translate(304 80) scale(21.38)"/><path d="M7.332 1.988H6.095l4.462 6.1-4.357 5.9h1.245L11.8 8.09 7.332 1.988z" style="stroke:none;stroke-width:1;stroke-dasharray:none;stroke-linecap:butt;stroke-dashoffset:0;stroke-linejoin:miter;stroke-miterlimit:4;fill:#0154dc;fill-rule:nonzero;opacity:1" transform="translate(303.786 80) scale(21.38)"/><path d="M9.725 1.988H8.472l4.533 6.027-4.533 5.973h1.255l4.303-5.67v-.603L9.725 1.988z" style="stroke:none;stroke-width:1;stroke-dasharray:none;stroke-linecap:butt;stroke-dashoffset:0;stroke-linejoin:miter;stroke-miterlimit:4;fill:#0154dc;fill-rule:nonzero;opacity:1" transform="translate(304 80) scale(21.38)"/></g><g><g clip-path="url(#b)" transform="translate(391.398 250.894) scale(14.63)"><clipPath id="b"><path stroke-linecap="round" d="M-9.87-7.99h16v16h-16z"/></clipPath><path d="m3.728 4 .5-.5h11.286l.5.5v7.983l-.5.5H4.228l-.5-.5V4zm4.037 3.963-3.037 2.862v-5.68l3.037 2.818zm-2.277 3.52L8.5 8.644l1.03.956h.68l1.031-.955 3.013 2.838H5.488zm9.526-.658v-5.68l-3.038 2.818 3.037 2.862zM9.87 8.552 5.502 4.5h8.737L9.871 8.552z" style="stroke:none;stroke-width:1;stroke-dasharray:none;stroke-linecap:butt;stroke-dashoffset:0;stroke-linejoin:miter;stroke-miterlimit:4;fill:#003783;fill-rule:evenodd;opacity:1" transform="translate(-9.87 -7.99)"/></g><g clip-path="url(#c)" transform="translate(268.945 251.04) scale(14.63)"><clipPath id="c"><path stroke-linecap="round" d="M-1.5-8h16V8h-16z"/></clipPath><path d="M.75 6.5H3v-1H.75v1zM3 8.5H0v-1h3v1zm-2.25 2H3v-1H.75v1z" style="stroke:none;stroke-width:1;stroke-dasharray:none;stroke-linecap:butt;stroke-dashoffset:0;stroke-linejoin:miter;stroke-miterlimit:4;fill:#003783;fill-rule:nonzero;opacity:1" transform="translate(-1.5 -8)"/></g></g></svg>