<svg xmlns="http://www.w3.org/2000/svg" version="1.2" viewBox="0 0 1280 640">
  <path fill="#013782" d="M0 0h1280v640H0Z"/>
  <g transform="translate(-109.1324 98.4602) scale(.69231)">
    <circle cx="640" cy="320" r="250" fill="#c5eaf4" stroke="#6ecde4" stroke-width="10"/>
    <path fill="#0155dd" d="M593.434 439.105 503.1 318.286l89.827-117.39-17.336-23.659-101.235 132.395-.14 16.943 101.712 136.188z"/>
    <path fill="#fff" d="M462.81 247.537h222.149v148.099H462.81Z"/>
    <path fill="#f38020" d="M683.209 237.242H461.387l-9.242 9.243v147.03l9.242 9.243H683.21l9.243-9.243v-147.03zm-110.91 94.866-86.474-76.38h172.984ZM530.705 320l-60.076 53.052v-106.29zm13.864 12.348 21.536 18.984h12.237l21.442-18.984 59.024 51.943H485.825ZM613.89 320l60.076-53.052v106.29z"/>
    <path fill="#0155dd" d="M624.959 151.416h-34.756l125.37 171.394-122.42 165.774h34.981l122.364-165.718Z"/>
    <path fill="#0155dd" d="M692.196 151.416H656.99l127.366 169.343L656.99 488.584h35.262l120.904-159.312V312.33Z"/>
  </g>
  <g fill="#f38020" aria-label="DISPOFLARE" font-family="Inter Variable" font-size="64" letter-spacing="8" style="line-height:0;white-space:pre;shape-padding:1.82467" word-spacing="0">
    <path fill="#fff" d="M632.9238 227.3214h-12.75v-10.75h12.1563q3.7187 0 6.1562-1.2813 2.4688-1.3124 3.6563-4.0624 1.2187-2.7813 1.2187-7.1563 0-4.4375-1.25-7.1875-1.2187-2.7813-3.75-4.0625-2.5312-1.3125-6.4062-1.3125h-11.9688v-10.75h12.75q7.1875 0 12.5 2.875 5.3125 2.8438 8.2188 8.0625 2.9062 5.2188 2.9062 12.375 0 7.125-2.875 12.3438-2.875 5.2187-8.1562 8.0625-5.25 2.8437-12.4063 2.8437zm-5.2187-46.5625v46.5625h-12.9063v-46.5625zm53.6875 0v46.5625h-12.9063v-46.5625zm32.5937 47.25q-6.3125 0-10.8125-1.8438-4.4687-1.8437-6.8437-5.5-2.3438-3.6874-2.375-9.0624h12.2187q.0937 1.9375 1.0625 3.3125 1 1.375 2.7188 2.0937 1.75.7188 4.125.7188 2.0312 0 3.5312-.5t2.3125-1.4063q.8125-.9375.8125-2.125 0-1.125-.7812-1.9375-.7813-.8438-2.4375-1.4688-1.625-.6562-4.25-1.1562l-4.625-.9063q-6.5938-1.2812-10.1563-4.6562-3.5625-3.4063-3.5625-8.6563 0-4.4374 2.4063-7.7812 2.4062-3.3438 6.6562-5.2188 4.2813-1.875 9.9063-1.875 5.7812 0 9.9375 1.875 4.1875 1.8438 6.4687 5.3126 2.2813 3.4375 2.4063 8.2187h-11.9688q-.2187-2.375-1.9687-3.75t-4.6875-1.375q-1.8438 0-3.2188.5-1.3437.5-2.0937 1.375-.75.875-.75 2t.6875 1.9375q.7187.7813 2.2187 1.375 1.5.5625 3.8438 1.0313l3.7812.7187q3.9688.75 6.8125 1.9688 2.8438 1.1875 4.6563 2.9062 1.8437 1.6875 2.6875 3.9063.875 2.1875.875 4.9375 0 4.7812-2.3125 8.1562t-6.6875 5.125q-4.375 1.75-10.5938 1.75zm32.1875-.6875v-46.5625h19.875q5.4375 0 9.4688 2 4.0312 2 6.2187 5.6563 2.1875 3.6562 2.1875 8.6562 0 4.9688-2.2187 8.625-2.1875 3.6563-6.25 5.6563-4.0313 1.9687-9.5313 1.9687h-12.2187v-10.4688h10.8125q2.0625 0 3.5312-.6874 1.4688-.7188 2.25-2.0313.8125-1.3125.8125-3.0625 0-1.8125-.8125-3.0938-.7812-1.2812-2.25-1.9687-1.4687-.7188-3.5312-.7188H759.08v36.0313zm71.0938.7188q-6.3438 0-11.5-2.7813-5.125-2.7813-8.125-8.125-3-5.3438-3-13.0625 0-7.7813 3-13.125 3-5.375 8.125-8.125 5.1562-2.7813 11.5-2.7813 6.3437 0 11.4687 2.7813 5.125 2.75 8.125 8.125 3.0313 5.3438 3.0313 13.125 0 7.75-3.0313 13.0938-3 5.3437-8.125 8.125-5.125 2.75-11.4687 2.75zm0-11.1875q3.0937 0 5.2187-1.5t3.2188-4.375q1.0937-2.875 1.0937-6.9063 0-4.0625-1.0937-6.9375-1.0938-2.9063-3.2188-4.4063t-5.2187-1.5q-3.0625 0-5.1875 1.5t-3.25 4.4063q-1.0938 2.875-1.0938 6.9375 0 4.0313 1.0938 6.9063 1.125 2.875 3.25 4.375t5.1875 1.5z" style="line-height:1;-inkscape-font-specification:&quot;Inter Variable, @opsz=21.5,wght=900&quot;;font-variation-settings:&quot;opsz&quot;21.5,&quot;wght&quot;900" transform="translate(11.6802 82.6408)"/>
    <path d="M852.0176 227.3214v-46.5625h34.4062v10.7813h-21.5v8.8437h20.0313v10.4063h-20.0313v16.5312zm46.375 0v-46.5625h12.9062v35.7813h19.75v10.7812zm42.4062 0 15.5-46.5625h17.4375l15.7188 46.5625h-14.5313l-5.25-18.0625q-1.7187-5.875-3.3125-11.75-1.5625-5.9063-3.0312-12.125h3.3437q-1.5 6.2188-3.0625 12.125-1.5312 5.875-3.2812 11.75l-5.3438 18.0625zm11.5313-8v-9.8438h25.625v9.8438zm48.1562 8v-46.5625h19.875q5.4375 0 9.4688 1.9688 4.0312 1.9375 6.2187 5.5625t2.1875 8.5937q0 4.9063-2.2812 8.4063-2.2813 3.5-6.4375 5.375-4.125 1.875-9.7813 1.875h-11.3437v-10h10.4375q2.0625 0 3.5312-.6563 1.4688-.6875 2.25-1.9375.8125-1.2813.8125-3.0625 0-1.7813-.8125-3.0313-.7812-1.2812-2.25-1.9687-1.4687-.6875-3.5312-.6875h-5.4375v36.125zm25.625 0-10.4375-21.1875h13.3125l10.7188 21.1875zm25 0v-46.5625h35.4063v10.7813h-22.5v7.25h20.7187v10.4375h-20.7187v7.3125h22.4687v10.7812z" style="line-height:1;-inkscape-font-specification:&quot;Inter Variable, @opsz=21.5,wght=900&quot;;font-variation-settings:&quot;opsz&quot;21.5,&quot;wght&quot;900" transform="translate(11.6802 82.6408)"/>
  </g>
  <g fill="#fff">
    <path d="M673.1074 375.8802H667.42v-1.3593h5.625q3.0938 0 5.2188-1.2344 2.1406-1.2344 3.2187-3.5469 1.0938-2.3281 1.0938-5.5625 0-3.2031-1.0469-5.4843-1.0469-2.297-3.0625-3.5157-2.0156-1.2187-4.9375-1.2187h-6.1563v-1.3594h6.2188q3.2813 0 5.6094 1.3906 2.3281 1.375 3.5625 3.9688 1.25 2.5937 1.25 6.2187 0 3.6719-1.2813 6.2969-1.2812 2.625-3.7343 4.0156-2.4375 1.3907-5.8907 1.3907zm-5.0156-23.2812v23.2813h-1.4688V352.599Zm20.0313 23.2813v-17.4688h1.4062v17.4688zm.6875-21.0782q-.4532 0-.797-.3281-.3437-.3281-.3437-.7813 0-.4687.3438-.7812.3437-.3281.7969-.3281.4843 0 .8125.3281.3437.3125.3437.7813 0 .453-.3438.7812-.328.3281-.8125.3281zm9.9375 21.4532q-1.625 0-2.8907-.5157-1.25-.5156-2.0625-1.5156-.7968-1-1.1093-2.4219l1.3593-.3281q.3907 1.7188 1.5938 2.6094 1.2031.875 3.1094.875 2.1093 0 3.4062-1.0156 1.3125-1.0157 1.3125-2.5782 0-1.2031-.7813-2.0156-.7656-.8281-2.3125-1.2031l-2.7812-.6875q-2.1406-.5156-3.2188-1.6719-1.078-1.1563-1.078-2.8594 0-1.4062.7343-2.4687.75-1.0781 2.0469-1.6719 1.2969-.6094 2.9844-.6094 1.4843 0 2.5937.4688 1.125.4687 1.875 1.375.7656.8906 1.1875 2.1719l-1.3281.3437q-.4844-1.4375-1.5313-2.2656-1.0312-.8281-2.7968-.8281-1.922 0-3.1407.953-1.2031.9532-1.2031 2.4844 0 1.2188.8125 2.047.8125.828 2.5 1.25l2.7188.6718q2.0625.5 3.1093 1.6406 1.0625 1.125 1.0625 2.8125 0 1.4532-.7812 2.5782-.7813 1.1093-2.1719 1.75-1.3906.625-3.2188.625zm9.4375 6.1562v-24h1.375v3.9063h.1718q.4063-1.125 1.1563-2.0625.75-.9532 1.875-1.5157t2.6094-.5625q2.0937 0 3.6562 1.1563 1.5625 1.1562 2.4219 3.2031.875 2.0313.875 4.6563 0 2.6406-.8594 4.6875-.8594 2.0468-2.4219 3.2187-1.5625 1.1563-3.6562 1.1563-1.5 0-2.625-.5782-1.1094-.5781-1.875-1.5312-.75-.9531-1.1563-2.0781h-.1406v10.3437zm7.0625-7.4688q1.7656 0 3.0312-1.0312 1.2656-1.0313 1.9375-2.7813.6719-1.7656.6719-3.953 0-2.172-.6719-3.9063-.6719-1.75-1.9375-2.7656-1.25-1.0157-3.0313-1.0157-1.7656 0-3.0312 1t-1.9531 2.7344q-.6719 1.7344-.6719 3.9531 0 2.2188.6719 3.9844.6719 1.75 1.9375 2.7656 1.2812 1.0157 3.0469 1.0157zm17.0937 1.3125q-2.1563 0-3.8594-1.1718-1.6875-1.1719-2.6562-3.2031-.9688-2.047-.9688-4.672 0-2.625.9688-4.6562.9687-2.0468 2.6562-3.2031 1.7032-1.1719 3.8594-1.1719 2.1719 0 3.8594 1.1719 1.6875 1.1563 2.6562 3.2031.9688 2.0469.9688 4.6563 0 2.625-.9688 4.6719-.9687 2.0312-2.6562 3.203-1.6875 1.172-3.8594 1.172zm0-1.3125q1.8281 0 3.1875-1.0312 1.3594-1.0313 2.1094-2.7813.75-1.7656.75-3.9218 0-2.1406-.75-3.8906-.75-1.7657-2.1094-2.797-1.3594-1.0312-3.1875-1.0312-1.8125 0-3.1719 1.0469-1.3593 1.0313-2.125 2.7813-.75 1.7343-.75 3.8906 0 2.1562.75 3.9219.7657 1.75 2.125 2.7812 1.3594 1.0313 3.1719 1.0313zm15.5469 1.3125q-1.625 0-2.8906-.5156-1.25-.5156-2.0625-1.5156-.797-1-1.1094-2.4219l1.3594-.3281q.3906 1.7188 1.5937 2.6094 1.2031.875 3.1094.875 2.1094 0 3.4062-1.0156 1.3125-1.0157 1.3125-2.5782 0-1.2031-.7812-2.0156-.7656-.8281-2.3125-1.2031l-2.7813-.6875q-2.1406-.5156-3.2187-1.6719-1.0781-1.1563-1.0781-2.8594 0-1.4062.7343-2.4687.75-1.0781 2.0469-1.6719 1.2969-.6094 2.9844-.6094 1.4844 0 2.5937.4688 1.125.4687 1.875 1.375.7657.8906 1.1875 2.1719l-1.3281.3437q-.4844-1.4375-1.5313-2.2656-1.0312-.8281-2.7968-.8281-1.9219 0-3.1406.953-1.2032.9532-1.2032 2.4844 0 1.2188.8125 2.047.8125.828 2.5 1.25l2.7188.6718q2.0625.5 3.1094 1.6406 1.0625 1.125 1.0625 2.8125 0 1.4532-.7813 2.5782-.7813 1.1093-2.1719 1.75-1.3906.625-3.2187.625zm13.7031.0156q-1.5 0-2.7656-.6093-1.2656-.6094-2.0313-1.7657-.75-1.1562-.75-2.8125 0-1.0937.3907-1.9218.3906-.8438 1.1875-1.4375.8125-.6094 2.078-1 1.2657-.4063 3.0157-.6094 1.3281-.1563 2.3594-.3125 1.0469-.1563 1.6406-.4844.6094-.3437.6094-1v-.7187q0-1.2813-.5469-2.1875-.5313-.9219-1.5469-1.4219-1-.5156-2.4062-.5156-1.25 0-2.2344.375-.9844.375-1.6719 1.0313-.6718.6562-1.0156 1.5156l-1.3594-.4844q.5157-1.2656 1.4532-2.0938.953-.828 2.1875-1.2343 1.25-.4063 2.6093-.4063 1.1719 0 2.2344.3282 1.0781.328 1.9063 1.0156.8437.6719 1.328 1.7187.4845 1.0313.4845 2.4532v12.1875h-1.4063v-3.1407h-.125q-.4531.9844-1.25 1.7813-.7969.7969-1.9063 1.2812-1.0937.4688-2.4687.4688zm.1719-1.3125q1.625 0 2.875-.7968 1.25-.8125 1.9687-2.2032.7188-1.4062.7188-3.1562v-2.5625q-.2656.2188-.7656.4063-.4844.1718-1.1094.3125-.6094.1406-1.2813.2343-.6718.0937-1.3125.1719-1.9062.2188-3.0937.7031-1.1875.4688-1.75 1.2188-.5469.75-.5469 1.8437 0 1.1719.5625 2.0313.5625.8593 1.5313 1.3281.9843.4688 2.203.4688zm18.75 1.297q-1.5 0-2.625-.5782-1.1094-.5781-1.875-1.5313-.75-.953-1.1563-2.078h-.1718v3.8124h-1.375V352.599h1.4062v9.7188h.1406q.4063-1.125 1.1563-2.0625.75-.9532 1.875-1.5157t2.6094-.5625q2.0937 0 3.6562 1.1563 1.5625 1.1562 2.4219 3.2031.875 2.0313.875 4.6563 0 2.6406-.8594 4.6875-.8594 2.0468-2.4219 3.2187-1.5625 1.1563-3.6562 1.1563zm-.1406-1.3126q1.7656 0 3.0312-1.0312 1.2656-1.0313 1.9375-2.7813.6719-1.7656.6719-3.9531 0-2.1719-.6719-3.9063-.6719-1.75-1.9375-2.7656-1.25-1.0156-3.0313-1.0156-1.7656 0-3.0312 1t-1.9531 2.7344q-.6719 1.7343-.6719 3.9531t.6719 3.9844q.6719 1.75 1.9375 2.7656 1.2812 1.0156 3.0469 1.0156zm12.0156-22.3437v23.2813h-1.4063V352.599Zm10.8594 23.6563q-2.3594 0-4.125-1.172-1.75-1.1718-2.7188-3.203-.9531-2.047-.9531-4.6563 0-2.6094.9531-4.6563.9688-2.0468 2.6563-3.2187t3.8437-1.1719q1.4844 0 2.7969.5938 1.3281.5781 2.3281 1.7031 1.0156 1.1094 1.5938 2.7031.578 1.5938.578 3.6407v.6562h-13.8593v-1.2656h13.0938l-.6563.5q0-2.0313-.7344-3.6719-.7343-1.6406-2.0625-2.5938-1.3125-.953-3.0781-.953-1.7188 0-3.0938.9687-1.3593.9687-2.1406 2.6094-.7812 1.6406-.7812 3.6562v.5781q0 2.1875.75 3.9219.7656 1.7188 2.1875 2.7188 1.4375 1 3.4219 1 1.4375 0 2.4375-.4688 1.0156-.4844 1.6562-1.1875.6563-.7031.9844-1.3438l1.2969.5157q-.3907.875-1.2344 1.75-.8438.875-2.125 1.4687-1.2813.5782-3.0156.5782zm23.9687 0q-2.3594 0-4.125-1.172-1.75-1.1718-2.7188-3.203-.953-2.047-.953-4.6563 0-2.6094.953-4.6563.9688-2.0468 2.6563-3.2187t3.8438-1.1719q1.4843 0 2.7968.5938 1.3282.5781 2.3282 1.7031 1.0156 1.1094 1.5937 2.7031.5781 1.5938.5781 3.6407v.6562h-13.8593v-1.2656h13.0937l-.6563.5q0-2.0313-.7343-3.6719-.7344-1.6406-2.0625-2.5938-1.3125-.953-3.0781-.953-1.7188 0-3.0938.9687-1.3594.9687-2.1406 2.6094-.7813 1.6406-.7813 3.6562v.5781q0 2.1875.75 3.9219.7657 1.7188 2.1875 2.7188 1.4375 1 3.4219 1 1.4375 0 2.4375-.4688 1.0156-.4844 1.6563-1.1875.6562-.7031.9843-1.3438l1.2969.5157q-.3906.875-1.2344 1.75-.8437.875-2.125 1.4687-1.2812.5782-3.0156.5782zm9.8438-.375v-17.4688h1.3906v4.0469h-.2344q.3594-1.5 1.1719-2.4531.8281-.9532 1.9062-1.4063 1.0938-.4531 2.25-.4531 1.9219 0 3.2188 1.2031 1.3125 1.2031 1.6562 3.2969h-.3125q.2969-1.4219 1.1094-2.4219.8125-1.0156 1.9688-1.5469 1.1718-.5312 2.5468-.5312 1.5938 0 2.7969.7031 1.2188.7031 1.8906 2.0469.6875 1.3281.6875 3.25v11.7344h-1.4218v-11.7188q0-2.3125-1.1875-3.5-1.172-1.1875-3.047-1.1875-1.328 0-2.3905.5781-1.047.5782-1.6563 1.6563-.6094 1.0625-.6094 2.5625v11.6094h-1.4218v-11.8125q0-2.172-1.1407-3.375-1.1406-1.2188-3-1.2188-1.3125 0-2.4062.6094-1.0781.6094-1.7188 1.7187-.6406 1.1094-.6406 2.5938v11.4844zm30.3593.3906q-1.5 0-2.7656-.6094t-2.0313-1.7656q-.75-1.1563-.75-2.8125 0-1.0938.3907-1.9219.3906-.8438 1.1875-1.4375.8125-.6094 2.0781-1 1.2656-.4063 3.0156-.6094 1.3282-.1562 2.3594-.3125 1.0469-.1562 1.6406-.4843.6094-.3438.6094-1v-.7188q0-1.2813-.5469-2.1875-.5312-.9219-1.5468-1.4219-1-.5156-2.4063-.5156-1.25 0-2.2344.375-.9843.375-1.6718 1.0313-.672.6562-1.0157 1.5156l-1.3593-.4844q.5156-1.2656 1.453-2.0938.9532-.828 2.1876-1.2343 1.25-.4063 2.6094-.4063 1.1718 0 2.2343.3282 1.0782.328 1.9063 1.0156.8437.6719 1.3281 1.7187.4844 1.0313.4844 2.4532v12.1875h-1.4063v-3.1407h-.125q-.4531.9844-1.25 1.7813-.7968.7969-1.9062 1.2812-1.0938.4688-2.4688.4688zm.1719-1.3125q1.625 0 2.875-.7969 1.25-.8125 1.9688-2.2031.7187-1.4063.7187-3.1563v-2.5625q-.2656.2188-.7656.4063-.4844.1719-1.1094.3125-.6094.1406-1.2813.2344-.6718.0937-1.3125.1718-1.9062.2188-3.0937.7032-1.1875.4687-1.75 1.2187-.5469.75-.5469 1.8438 0 1.1718.5625 2.0312.5625.8594 1.5313 1.3281.9844.4688 2.2031.4688zm11.5469.9219v-17.4688h1.4062v17.4688zm.6875-21.0782q-.4531 0-.7969-.3281-.3438-.3281-.3438-.7813 0-.4687.3438-.7812.3438-.3281.7969-.3281.4844 0 .8125.3281.3437.3125.3437.7813 0 .453-.3437.7812-.3281.3281-.8125.3281zm6.1875-2.2031v23.2813h-1.4063V352.599Zm15.6562 23.6719q-1.5 0-2.7656-.6094t-2.0313-1.7656q-.75-1.1563-.75-2.8125 0-1.0938.3907-1.9219.3906-.8438 1.1875-1.4375.8125-.6094 2.0781-1 1.2656-.4063 3.0156-.6094 1.3282-.1562 2.3594-.3125 1.0469-.1562 1.6406-.4843.6094-.3438.6094-1v-.7188q0-1.2813-.5469-2.1875-.5312-.9219-1.5468-1.4219-1-.5156-2.4063-.5156-1.25 0-2.2344.375-.9843.375-1.6718 1.0313-.672.6562-1.0157 1.5156l-1.3593-.4844q.5156-1.2656 1.453-2.0938.9532-.828 2.1876-1.2343 1.25-.4063 2.6094-.4063 1.1718 0 2.2343.3282 1.0782.328 1.9063 1.0156.8437.6719 1.3281 1.7187.4844 1.0313.4844 2.4532v12.1875h-1.4063v-3.1407h-.125q-.4531.9844-1.25 1.7813-.7968.7969-1.9062 1.2812-1.0938.4688-2.4688.4688zm.1719-1.3125q1.625 0 2.875-.7969 1.25-.8125 1.9688-2.2031.7187-1.4063.7187-3.1563v-2.5625q-.2656.2188-.7656.4063-.4844.1719-1.1094.3125-.6094.1406-1.2813.2344-.6718.0937-1.3125.1718-1.9062.2188-3.0937.7032-1.1875.4687-1.75 1.2187-.5469.75-.5469 1.8438 0 1.1718.5625 2.0312.5625.8594 1.5313 1.3281.9844.4688 2.2031.4688zm17.5 1.2969q-2.0938 0-3.6719-1.1563-1.5625-1.1719-2.4218-3.2188-.8594-2.0468-.8594-4.6875 0-2.625.8594-4.6562.875-2.0469 2.4375-3.2031 1.578-1.1563 3.6562-1.1563 1.5 0 2.6094.5625 1.125.5625 1.8906 1.5157.7656.9375 1.1406 2.0625h.1407v-9.7188h1.4218v23.2813h-1.3906v-3.8125h-.1719q-.3906 1.125-1.1562 2.078-.7656.9532-1.8906 1.5313-1.1094.5782-2.5938.5782zm.1406-1.3125q1.7657 0 3.0313-1.0157 1.2656-1.0156 1.9375-2.7656.6875-1.7656.6875-3.9844 0-2.2187-.6875-3.9531-.6719-1.7344-1.9375-2.7344t-3.0313-1q-1.7812 0-3.0468 1.0157-1.2657 1.0156-1.9375 2.7656-.672 1.7344-.672 3.9062 0 2.1875.672 3.9532.6718 1.75 1.9375 2.7812 1.2656 1.0313 3.0468 1.0313zm17.5313 1.3125q-2.0938 0-3.6719-1.1563-1.5625-1.1719-2.4219-3.2188-.8593-2.0468-.8593-4.6875 0-2.625.8593-4.6562.875-2.0469 2.4375-3.2031 1.5782-1.1563 3.6563-1.1563 1.5 0 2.6094.5625 1.125.5625 1.8906 1.5157.7656.9375 1.1406 2.0625h.1406v-9.7188h1.4219v23.2813h-1.3906v-3.8125h-.1719q-.3906 1.125-1.1563 2.078-.7656.9532-1.8906 1.5313-1.1093.5782-2.5937.5782zm.1406-1.3125q1.7656 0 3.0313-1.0157 1.2656-1.0156 1.9375-2.7656.6875-1.7656.6875-3.9844 0-2.2187-.6875-3.9531-.672-1.7344-1.9375-2.7344-1.2657-1-3.0313-1-1.7813 0-3.0469 1.0157-1.2656 1.0156-1.9375 2.7656-.6718 1.7344-.6718 3.9062 0 2.1875.6718 3.9532.6719 1.75 1.9375 2.7812 1.2657 1.0313 3.0469 1.0313zm11.5781.9375v-17.4688h1.375v2.75h.125q.5782-1.3438 1.9219-2.1563 1.3594-.828 3.0781-.828.1875 0 .3594.0155h.3594v1.4219q-.0937 0-.3125-.0156-.2188-.0312-.5-.0312-1.4375 0-2.5781.625-1.125.625-1.7813 1.7187-.6406 1.0938-.6406 2.5157v11.453zm15.427.375q-2.3593 0-4.125-1.172-1.75-1.1718-2.7187-3.203-.953-2.047-.953-4.6563 0-2.6094.953-4.6563.9688-2.0468 2.6563-3.2187t3.8437-1.1719q1.4844 0 2.797.5938 1.328.5781 2.328 1.7031 1.0157 1.1094 1.5938 2.7031.5781 1.5938.5781 3.6407v.6562h-13.8594v-1.2656h13.0938l-.6563.5q0-2.0313-.7343-3.6719-.7344-1.6406-2.0625-2.5938-1.3125-.953-3.0782-.953-1.7187 0-3.0937.9687-1.3594.9687-2.1406 2.6094-.7813 1.6406-.7813 3.6562v.5781q0 2.1875.75 3.9219.7656 1.7188 2.1875 2.7188 1.4375 1 3.4219 1 1.4375 0 2.4375-.4688 1.0156-.4844 1.6562-1.1875.6563-.7031.9844-1.3438l1.2969.5157q-.3906.875-1.2344 1.75-.8437.875-2.125 1.4687-1.2812.5782-3.0156.5782zm15 0q-1.625 0-2.8905-.5157-1.25-.5156-2.0625-1.5156-.797-1-1.1094-2.4219l1.3594-.3281q.3906 1.7188 1.5937 2.6094 1.2031.875 3.1094.875 2.1094 0 3.4062-1.0156 1.3125-1.0157 1.3125-2.5782 0-1.2031-.7812-2.0156-.7656-.8281-2.3125-1.2031l-2.7813-.6875q-2.1406-.5156-3.2187-1.6719-1.0781-1.1563-1.0781-2.8594 0-1.4062.7343-2.4687.75-1.0781 2.047-1.6719 1.2968-.6094 2.9843-.6094 1.4844 0 2.5937.4688 1.125.4687 1.875 1.375.7657.8906 1.1875 2.1719l-1.328.3437q-.4845-1.4375-1.5313-2.2656-1.0313-.8281-2.797-.8281-1.9218 0-3.1405.953-1.2032.9532-1.2032 2.4844 0 1.2188.8125 2.047.8125.828 2.5 1.25l2.7188.6718q2.0625.5 3.1094 1.6406 1.0625 1.125 1.0625 2.8125 0 1.4532-.7813 2.5782-.7812 1.1093-2.1719 1.75-1.3906.625-3.2187.625zm14.5938 0q-1.625 0-2.8906-.5157-1.25-.5156-2.0625-1.5156-.7969-1-1.1094-2.4219l1.3594-.3281q.3906 1.7188 1.5938 2.6094 1.203.875 3.1093.875 2.1094 0 3.4063-1.0156 1.3125-1.0157 1.3125-2.5782 0-1.2031-.7813-2.0156-.7656-.8281-2.3125-1.2031l-2.7812-.6875q-2.1406-.5156-3.2188-1.6719-1.078-1.1563-1.078-2.8594 0-1.4062.7343-2.4687.75-1.0781 2.0469-1.6719 1.2968-.6094 2.9843-.6094 1.4844 0 2.5938.4688 1.125.4687 1.875 1.375.7656.8906 1.1875 2.1719l-1.3281.3437q-.4844-1.4375-1.5313-2.2656-1.0312-.8281-2.7969-.8281-1.9218 0-3.1406.953-1.2031.9532-1.2031 2.4844 0 1.2188.8125 2.047.8125.828 2.5 1.25l2.7187.6718q2.0625.5 3.1094 1.6406 1.0625 1.125 1.0625 2.8125 0 1.4532-.7812 2.5782-.7813 1.1093-2.172 1.75-1.3905.625-3.2187.625zm16.2344 0q-2.3594 0-4.125-1.172-1.75-1.1718-2.7187-3.203-.9532-2.047-.9532-4.6563 0-2.6094.9532-4.6563.9687-2.0468 2.6562-3.2187t3.8438-1.1719q1.4843 0 2.7968.5938 1.3282.5781 2.3282 1.7031 1.0156 1.1094 1.5937 2.7031.5781 1.5938.5781 3.6407v.6562h-13.8593v-1.2656h13.0937l-.6562.5q0-2.0313-.7344-3.6719t-2.0625-2.5938q-1.3125-.953-3.0781-.953-1.7188 0-3.0938.9687-1.3594.9687-2.1406 2.6094-.7813 1.6406-.7813 3.6562v.5781q0 2.1875.75 3.9219.7657 1.7188 2.1875 2.7188 1.4375 1 3.4219 1 1.4375 0 2.4375-.4688 1.0156-.4844 1.6563-1.1875.6562-.7031.9843-1.3438l1.2969.5157q-.3906.875-1.2344 1.75-.8437.875-2.125 1.4687-1.2812.5782-3.0156.5782zm15 0q-1.625 0-2.8906-.5157-1.25-.5156-2.0625-1.5156-.7969-1-1.1094-2.4219l1.3594-.3281q.3906 1.7188 1.5937 2.6094 1.2032.875 3.1094.875 2.1094 0 3.4063-1.0156 1.3125-1.0157 1.3125-2.5782 0-1.2031-.7813-2.0156-.7656-.8281-2.3125-1.2031l-2.7812-.6875q-2.1407-.5156-3.2188-1.6719-1.0781-1.1563-1.0781-2.8594 0-1.4062.7344-2.4687.75-1.0781 2.0468-1.6719 1.2969-.6094 2.9844-.6094 1.4844 0 2.5938.4688 1.125.4687 1.875 1.375.7656.8906 1.1875 2.1719l-1.3282.3437q-.4843-1.4375-1.5312-2.2656-1.0313-.8281-2.7969-.8281-1.9219 0-3.1406.953-1.2031.9532-1.2031 2.4844 0 1.2188.8125 2.047.8125.828 2.5 1.25l2.7187.6718q2.0625.5 3.1094 1.6406 1.0625 1.125 1.0625 2.8125 0 1.4532-.7813 2.5782-.7812 1.1093-2.1718 1.75-1.3907.625-3.2188.625zm-358.8333 46.5823v-24h1.375v3.9062h.1719q.4062-1.125 1.1562-2.0625.75-.953 1.875-1.5156 1.125-.5625 2.6094-.5625 2.0937 0 3.6562 1.1563 1.5625 1.1562 2.422 3.203.875 2.0313.875 4.6563 0 2.6407-.8595 4.6875-.8593 2.047-2.4218 3.2188-1.5625 1.1562-3.6563 1.1562-1.5 0-2.625-.578-1.1094-.5782-1.875-1.5313-.75-.9532-1.1562-2.0782h-.1407v10.3438zm7.0625-7.4688q1.7656 0 3.0312-1.0312 1.2657-1.0313 1.9375-2.7813.672-1.7656.672-3.953 0-2.172-.672-3.9063-.6718-1.75-1.9375-2.7657-1.25-1.0156-3.0312-1.0156-1.7656 0-3.0313 1-1.2656 1-1.953 2.7344-.672 1.7344-.672 3.9531 0 2.2188.672 3.9844.6718 1.75 1.9374 2.7656 1.2813 1.0156 3.0469 1.0156zm17.0937 1.3125q-2.1562 0-3.8593-1.1718-1.6875-1.172-2.6563-3.2032-.9687-2.0468-.9687-4.6718t.9687-4.6563q.9688-2.0469 2.6563-3.2031 1.7031-1.1719 3.8593-1.1719 2.172 0 3.8594 1.1719 1.6875 1.1562 2.6563 3.2031.9687 2.0469.9687 4.6563 0 2.625-.9687 4.6718-.9688 2.0313-2.6563 3.2032-1.6875 1.1718-3.8594 1.1718zm0-1.3125q1.8282 0 3.1875-1.0312 1.3594-1.0313 2.1094-2.7813.75-1.7656.75-3.9218 0-2.1407-.75-3.8907-.75-1.7656-2.1094-2.7968-1.3593-1.0313-3.1875-1.0313-1.8125 0-3.1718 1.0469-1.3594 1.0312-2.125 2.7812-.75 1.7344-.75 3.8907 0 2.1562.75 3.9218.7656 1.75 2.125 2.7813 1.3593 1.0312 3.1718 1.0312zm13.375.9375-5.1562-17.4687h1.4844l3.2187 11.1875q.3594 1.2344.7031 2.5625.3594 1.3125.7188 2.8594h-.2656q.375-1.5.75-2.8282.375-1.3437.75-2.5937l3.5312-11.1875h1.625l3.5156 11.1875q.3907 1.2344.75 2.5625.375 1.3281.75 2.8594h-.2656q.3594-1.5157.7031-2.8438.3594-1.3281.7032-2.5781l3.2343-11.1875h1.4844l-5.1562 17.4687h-1.6094l-3.7031-11.6406q-.25-.8125-.4844-1.625l-.4688-1.6562q-.2343-.8438-.4687-1.7188h.3906q-.2344.875-.4687 1.7188-.2344.828-.4844 1.6562-.2344.8281-.4844 1.625l-3.7031 11.6406zm26.0157.375q-2.3594 0-4.125-1.1718-1.75-1.172-2.7188-3.2032-.9531-2.0468-.9531-4.6562t.9531-4.6563q.9688-2.0468 2.6563-3.2187t3.8437-1.1719q1.4844 0 2.7969.5938 1.3281.578 2.3281 1.703 1.0156 1.1095 1.5938 2.7032.5781 1.5938.5781 3.6406v.6563h-13.8594v-1.2656h13.0938l-.6563.5q0-2.0313-.7344-3.672-.7343-1.6405-2.0625-2.5937-1.3125-.953-3.078-.953-1.7188 0-3.0938.9687-1.3594.9687-2.1407 2.6093-.7812 1.6407-.7812 3.6563v.5781q0 2.1875.75 3.9219.7656 1.7187 2.1875 2.7187 1.4375 1 3.4219 1 1.4375 0 2.4375-.4687 1.0156-.4844 1.6562-1.1875.6563-.7031.9844-1.3438l1.2969.5157q-.3907.875-1.2344 1.75-.8438.875-2.125 1.4687-1.2813.5781-3.0156.5781zm9.8437-.375v-17.4687h1.375v2.75h.125q.5781-1.3438 1.9219-2.1563 1.3594-.828 3.0781-.828.1875 0 .3594.0155h.3594v1.4219q-.0937 0-.3125-.0156-.2188-.0312-.5-.0312-1.4375 0-2.5782.625-1.125.625-1.7812 1.7187-.6406 1.0938-.6406 2.5157v11.453zm15.427.375q-2.3593 0-4.125-1.1718-1.75-1.172-2.7187-3.2032-.953-2.0468-.953-4.6562t.953-4.6563q.9688-2.0468 2.6563-3.2187t3.8437-1.1719q1.4844 0 2.797.5938 1.328.578 2.328 1.703 1.0157 1.1095 1.5938 2.7032.5781 1.5938.5781 3.6406v.6563h-13.8594v-1.2656h13.0938l-.6563.5q0-2.0313-.7343-3.672-.7344-1.6405-2.0625-2.5937-1.3125-.953-3.0782-.953-1.7187 0-3.0937.9687-1.3594.9687-2.1406 2.6093-.7813 1.6407-.7813 3.6563v.5781q0 2.1875.75 3.9219.7656 1.7187 2.1875 2.7187 1.4375 1 3.4219 1 1.4375 0 2.4375-.4687 1.0156-.4844 1.6562-1.1875.6563-.7031.9844-1.3438l1.2969.5157q-.3906.875-1.2344 1.75-.8437.875-2.125 1.4687-1.2812.5781-3.0156.5781zm15.797 0q-2.0938 0-3.672-1.1562-1.5624-1.1719-2.4218-3.2188-.8594-2.0468-.8594-4.6875 0-2.625.8594-4.6562.875-2.0469 2.4375-3.2031 1.5781-1.1563 3.6563-1.1563 1.5 0 2.6093.5625 1.125.5625 1.8907 1.5156.7656.9375 1.1406 2.0625h.1406v-9.7187h1.4219v23.2812h-1.3906v-3.8125h-.172q-.3905 1.125-1.1562 2.0782-.7656.953-1.8906 1.5312-1.1094.5781-2.5937.5781zm.1406-1.3125q1.7656 0 3.0312-1.0156 1.2657-1.0156 1.9375-2.7656.6875-1.7656.6875-3.9844 0-2.2187-.6875-3.9531-.6718-1.7344-1.9375-2.7344-1.2656-1-3.0312-1-1.7813 0-3.0469 1.0156-1.2656 1.0157-1.9375 2.7657-.6719 1.7343-.6719 3.9062 0 2.1875.672 3.9531.6718 1.75 1.9374 2.7813 1.2656 1.0312 3.0469 1.0312zm26.1094 1.3125q-1.5 0-2.625-.578-1.1094-.5782-1.875-1.5313-.75-.9532-1.1563-2.0782h-.1719v3.8125h-1.375v-23.2812h1.4063v9.7187h.1406q.4063-1.125 1.1563-2.0625.75-.953 1.875-1.5156 1.125-.5625 2.6093-.5625 2.0938 0 3.6563 1.1563 1.5625 1.1562 2.4219 3.203.875 2.0313.875 4.6563 0 2.6407-.8594 4.6875-.8594 2.047-2.4219 3.2188-1.5625 1.1562-3.6562 1.1562zm-.1407-1.3125q1.7657 0 3.0313-1.0312 1.2656-1.0313 1.9375-2.7813.6719-1.7656.6719-3.953 0-2.172-.672-3.9063-.6718-1.75-1.9374-2.7657-1.25-1.0156-3.0313-1.0156-1.7656 0-3.0312 1t-1.9531 2.7344q-.672 1.7344-.672 3.9531 0 2.2188.672 3.9844.6718 1.75 1.9375 2.7656 1.2812 1.0156 3.0468 1.0156zm9.2188 7.1875.4219-1.2187.203.0625q1.0157.3594 1.8438.2031.8282-.1406 1.4688-.8281.6406-.6719 1.0937-1.9219l.8907-2.375-6.7188-17.6406h1.5469l4.3281 11.5937q.5156 1.375.9375 2.75.4375 1.3594.875 2.6875h-.4687q.453-1.328.875-2.6875.4375-1.375.953-2.75l4.375-11.5937h1.5313l-7.8593 20.5469q-.4532 1.1875-1.0938 1.9843-.625.797-1.4375 1.1875-.7969.4063-1.7812.4063-.547 0-1.0625-.1094-.5157-.1094-.922-.2969z" aria-label="Disposable email addresses powered by" font-family="Inter Variable" font-size="32" style="-inkscape-font-specification:&quot;Inter Variable, @wght=200&quot;;font-variation-settings:&quot;wght&quot;200;white-space:pre;inline-size:399.671" transform="translate(-39.6753 -16.9655)"/>
    <path d="M829.658 394.3394v4.7387h-14.869v-19.5283h5.4084v14.7896zm5.607-4.9488v-.0511c0-5.6071 4.5402-10.1586 10.5446-10.1586 6.0044 0 10.4878 4.4947 10.4878 10.1018v.0568c0 5.6071-4.5402 10.153-10.5446 10.153-6.0043 0-10.4877-4.5119-10.4877-10.102m15.5103 0v-.051c0-2.8376-2.0374-5.2723-5.0226-5.2723-2.9851 0-4.9374 2.395-4.9374 5.2155v.0568c0 2.8376 2.0374 5.2723 4.9942 5.2723 2.9568 0 4.9658-2.4007 4.9658-5.2212m12.1449 1.135v-10.9758h5.4993v10.851c0 2.8376 1.4188 4.1599 3.598 4.1599 2.1794 0 3.5982-1.2826 3.5982-4.018v-10.993h5.4936v10.8227c0 6.3051-3.5981 9.0803-9.1485 9.0803-5.5503 0-9.0406-2.8376-9.0406-8.927m26.4749-10.9759h7.531c6.9748 0 11.0212 4.018 11.0212 9.6478v.0568c0 5.6354-4.1032 9.818-11.129 9.818h-7.4232Zm7.6161 14.7555c3.2349 0 5.3858-1.7877 5.3858-4.9431v-.051c0-3.1271-2.151-4.9432-5.3858-4.9432h-2.219v9.9146zm33.4497-6.6911v4.4891h-9.2336v6.9748h-5.4141v-19.5283h15.6181v4.7444h-10.204v3.32zm23.3761 6.7252v4.7387h-14.869v-19.5283h5.4085v14.7896zm14.1653-14.9258h5.2156l8.2914 19.6645h-5.8l-1.4245-3.4845h-7.5367l-1.3904 3.4845h-5.6752zm4.7388 11.9633-2.1736-5.5504-2.2246 5.5504zm15.7374-11.8271h9.2335c2.9909 0 5.051.7831 6.362 2.1225a6.0384 6.0384 0 0 1 1.7309 4.5402v.0567a6.1746 6.1746 0 0 1-4.018 5.9987l4.6593 6.8102h-6.2427l-3.9386-5.9135h-2.3723v5.9135h-5.4141zm8.9838 9.3754c1.8445 0 2.9057-.8967 2.9057-2.3155v-.0567c0-1.538-1.135-2.3155-2.934-2.3155h-3.5414v4.6877zm31.9968 5.5504v4.6025h-15.8451v-19.5283h15.709v4.6026h-10.3516v2.9567h9.3754v4.2678h-9.3754v3.0987zm-226.5201-2.8149a4.7899 4.7899 0 0 1-4.472 2.9284c-2.9625 0-4.9942-2.4574-4.9942-5.2723v-.0568c0-2.8376 1.9806-5.2211 4.9374-5.2211a4.9034 4.9034 0 0 1 4.6423 3.2405h5.6752c-.8853-4.648-4.9658-8.1042-10.2608-8.1042-6.027 0-10.5445 4.5402-10.5445 10.1586v.0568c0 5.607 4.4607 10.1018 10.4878 10.1018 5.153 0 9.1825-3.337 10.2437-7.809z" class="cls-1"/>
  </g>
</svg>
